<svg xmlns="http://www.w3.org/2000/svg" width="128" height="128" viewBox="0 0 128 128">
  <defs>
    <linearGradient id="g" x1="0" x2="1" y1="0" y2="1">
      <stop offset="0" stop-color="#ff7ac8"/>
      <stop offset="1" stop-color="#ffb3df"/>
    </linearGradient>
  </defs>
  <rect x="8" y="8" width="112" height="112" rx="28" fill="url(#g)"/>
  <path d="M48 44c-10 0-18 8-18 20s8 20 18 20c6 0 11-2 14-7l-8-5c-1 2-3 3-6 3-5 0-9-4-9-11s4-11 9-11c3 0 5 1 6 3l8-5c-3-5-8-7-14-7zm34 0c-10 0-18 8-18 20s8 20 18 20c6 0 11-2 14-7l-8-5c-1 2-3 3-6 3-5 0-9-4-9-11s4-11 9-11c3 0 5 1 6 3l8-5c-3-5-8-7-14-7z" fill="#fff" opacity="0.95"/>
</svg>
